<?xml version="1.0" standalone="no"?>
<!DOCTYPE svg PUBLIC "-//W3C//DTD SVG 20010904//EN"
 "http://www.w3.org/TR/2001/REC-SVG-20010904/DTD/svg10.dtd">
<svg version="1.0" xmlns="http://www.w3.org/2000/svg"
 width="900.000000pt" height="690.000000pt" viewBox="0 0 900.000000 690.000000"
 preserveAspectRatio="xMidYMid meet">

<g transform="translate(0.000000,690.000000) scale(0.100000,-0.100000)"
fill="#000000" stroke="none">
<path d="M198 6850 c-59 -18 -97 -51 -125 -108 l-28 -57 0 -2535 c0 -2764 -4
-2576 58 -2646 65 -75 -101 -68 1787 -74 l1695 -5 -2 -80 -1 -80 11 78 10 77
899 -2 c588 -2 899 -6 901 -13 1 -5 -19 -11 -45 -13 -62 -4 -62 -22 0 -22 46
0 48 -1 50 -30 1 -16 9 -53 17 -82 l14 -53 -6 95 c-3 52 -7 102 -7 110 -1 13
195 16 1689 20 1882 6 1730 -1 1792 74 61 75 58 -31 58 1661 0 853 -2 1998 -5
2545 -5 993 -5 995 -26 1035 -25 46 -45 65 -94 91 -34 18 -155 19 -4325 21
-2360 1 -4302 -2 -4317 -7z m8424 -348 l23 -23 0 -477 c0 -262 -1 -597 -3
-744 l-3 -268 -182 2 c-100 1 -165 3 -145 5 31 4 36 7 29 21 -5 9 -17 36 -27
60 -26 64 -35 67 -80 27 -49 -44 -74 -51 -113 -31 -28 15 -34 15 -60 1 -17 -8
-33 -20 -37 -26 -11 -18 -107 -57 -145 -59 -19 -1 -203 -2 -409 -1 l-375 1 -3
62 c-2 35 0 60 4 56 4 -4 13 0 19 9 11 15 14 14 27 -13 9 -16 18 -46 22 -66 4
-21 11 -38 16 -38 10 0 25 164 16 179 -9 13 -56 14 -76 1 -9 -5 -19 -5 -27 1
-6 6 -27 9 -45 7 l-33 -3 4 -97 3 -98 -91 0 c-62 0 -90 3 -86 10 4 6 4 49 0
95 -7 75 -10 85 -27 85 -15 0 -18 -5 -13 -22 6 -17 4 -20 -10 -14 -13 5 -16 2
-11 -10 3 -8 6 -20 6 -26 0 -6 7 -7 16 -4 13 5 14 1 8 -27 -4 -17 -6 -44 -6
-59 0 -21 -4 -28 -19 -28 -10 0 -18 3 -17 8 1 4 -2 25 -7 47 -5 22 -9 63 -9
90 l-1 50 -49 3 c-27 2 -53 -1 -59 -7 -7 -7 -14 -6 -21 3 -6 8 -21 17 -33 21
-21 6 -23 3 -23 -28 0 -19 -7 -40 -15 -47 -13 -10 -15 -9 -15 8 0 11 5 33 10
48 10 25 7 31 -34 71 -50 48 -76 113 -76 192 0 40 -4 49 -27 63 -21 13 -23 18
-10 18 18 0 23 15 8 24 -5 3 -14 -1 -21 -9 -19 -23 -26 -19 -44 28 -18 49 -83
118 -94 101 -8 -12 -42 -15 -42 -4 0 4 -21 18 -47 33 -43 23 -61 26 -165 28
-173 4 -175 4 -184 47 -4 21 -8 44 -9 52 -4 34 -18 86 -25 95 -13 17 -40 108
-34 114 3 3 29 8 57 11 44 4 52 8 52 25 0 17 -9 21 -70 26 -95 9 -240 10 -259
3 -16 -6 -12 -29 12 -56 15 -18 19 -106 9 -243 l-4 -70 -83 -3 -82 -3 -52 40
c-162 125 -320 129 -500 11 l-77 -50 -669 0 c-369 0 -670 4 -670 9 0 4 5 22
11 39 9 27 8 37 -10 66 -38 61 -63 54 -51 -14 9 -54 -1 -94 -26 -98 -25 -4
-32 18 -28 91 2 48 -12 65 -20 25 -14 -67 -18 -86 -24 -113 -4 -16 -24 -57
-44 -91 -52 -84 -64 -146 -43 -218 20 -68 83 -136 143 -154 59 -18 2802 -17
2821 1 9 8 8 2 -2 -19 -13 -24 -28 -35 -74 -49 -32 -11 -78 -18 -103 -17 -59
2 -80 -5 -80 -28 0 -10 -5 -22 -12 -26 -8 -5 -9 2 -5 24 l6 32 -128 0 -129 0
-11 -50 c-6 -28 -11 -65 -11 -83 -1 -59 -28 -73 -129 -68 -33 1 -33 2 -17 20
9 10 30 21 45 24 39 8 66 65 54 115 l-9 37 -449 0 -450 0 -3 -62 c-2 -43 2
-72 13 -94 9 -17 14 -34 10 -37 -4 -4 -356 -6 -783 -4 -428 1 -803 2 -836 2
l-58 0 23 19 c20 16 24 28 23 75 0 31 -5 61 -12 68 -19 19 -14 31 12 24 33 -8
42 7 61 96 19 94 12 152 -22 176 -13 9 -37 27 -53 40 -15 12 -37 22 -48 22
-20 0 -102 -84 -102 -105 0 -6 -15 -42 -34 -80 -18 -39 -36 -92 -40 -119 -3
-28 -15 -59 -25 -70 -11 -12 -23 -34 -27 -51 -11 -46 -13 -47 -46 -20 -16 14
-35 25 -42 25 -6 0 -29 9 -51 20 -22 11 -46 20 -54 20 -11 0 -9 6 7 23 12 13
19 27 15 31 -4 4 0 4 10 1 22 -9 102 30 128 63 17 22 20 36 16 80 -3 29 -14
63 -25 76 l-19 24 -55 -61 c-35 -40 -76 -73 -114 -92 l-59 -30 -317 -1 c-175
0 -320 -3 -324 -6 -13 -14 18 -79 45 -93 16 -8 36 -25 45 -39 9 -14 27 -28 41
-32 19 -5 25 -13 25 -33 0 -50 -3 -51 -312 -51 -277 0 -288 1 -279 18 21 39
11 191 -16 262 -4 8 -5 19 -4 23 1 4 -8 3 -20 -3 -11 -7 -28 -9 -36 -6 -9 4
-22 1 -29 -5 -17 -14 -17 -11 1 40 l15 42 -46 47 c-55 57 -88 118 -103 194
-13 60 -56 122 -70 99 -9 -14 -18 -5 -40 41 -20 39 -71 98 -85 98 -6 0 -17
-13 -23 -30 -6 -16 -15 -30 -21 -30 -11 0 -32 45 -32 68 0 28 -20 43 -41 31
-14 -7 -21 -5 -31 11 -7 11 -18 20 -24 20 -6 0 -17 6 -23 14 -34 41 -254 54
-344 20 -20 -8 -42 -14 -47 -14 -14 0 -13 522 1 554 6 13 20 28 30 32 11 5
1864 9 4119 9 l4099 0 23 -23z m-7792 -727 c0 -36 -48 -98 -51 -67 0 4 -2 15
-4 25 -4 20 23 55 43 56 6 1 12 -6 12 -14z m3640 -149 c33 -49 37 -66 16 -66
-7 0 -21 -10 -30 -22 -14 -21 -16 -22 -26 -5 -6 9 -20 17 -32 17 -16 0 -19 5
-15 23 14 55 33 97 44 97 7 0 26 -20 43 -44z m-1002 -53 l3 -83 -40 0 c-22 0
-42 4 -46 9 -3 5 -7 41 -9 80 -5 77 -3 79 54 77 l35 -1 3 -82z m814 -69 c2
-80 0 -148 -4 -151 -22 -13 -28 19 -28 153 0 119 3 144 14 144 12 0 16 -27 18
-146z m343 137 c3 -5 -3 -11 -12 -13 -10 -2 20 -3 67 -3 47 0 88 4 91 9 10 13
79 -3 79 -19 0 -7 -6 -15 -12 -18 -10 -3 -10 -7 1 -20 12 -16 7 -17 -68 -17
-77 0 -81 1 -82 23 l-2 22 -4 -22 c-4 -21 -10 -23 -69 -23 l-64 0 0 39 c0 33
4 40 23 44 39 8 46 7 52 -2z m-1045 -10 c0 -5 9 -11 20 -14 13 -3 20 0 20 9 0
8 7 14 15 14 8 0 15 -4 15 -9 0 -15 49 -19 54 -5 6 17 33 19 38 3 2 -7 40 -11
101 -11 53 0 97 -4 97 -9 0 -5 -7 -9 -15 -9 -8 0 -15 -7 -15 -16 0 -12 6 -15
21 -11 15 4 18 2 10 -7 -8 -10 -62 -13 -211 -13 l-200 0 0 29 c0 15 -4 28 -10
28 -5 0 -10 7 -10 15 0 10 11 15 35 15 19 0 35 -4 35 -9z m-2630 -71 c12 -7
12 -12 -4 -29 -30 -33 -47 -28 -33 9 12 33 15 34 37 20z m3752 -112 c5 -14
147 -13 162 2 13 13 59 13 73 -1 13 -13 277 -13 281 1 5 14 29 13 34 -2 3 -7
28 -10 71 -9 54 1 67 -1 67 -14 0 -8 -4 -15 -10 -15 -5 0 -10 -6 -10 -13 0 -7
9 -13 19 -13 11 0 17 4 15 8 -3 5 -2 17 1 28 6 18 15 20 111 20 l104 0 0 -25
c0 -14 5 -25 10 -25 6 0 10 13 10 29 0 30 21 54 28 33 2 -7 23 -12 48 -12 41
0 57 -11 34 -25 -5 -3 -10 -15 -10 -26 0 -17 -7 -19 -75 -19 -71 0 -75 1 -76
23 -2 21 -2 21 -6 1 -4 -20 -11 -22 -91 -24 -48 -1 -112 -1 -142 -1 -30 1 -91
1 -135 0 -44 -1 -98 -1 -120 0 -133 3 -139 3 -151 -14 -17 -23 -73 -23 -93 1
-15 18 -30 19 -211 17 -143 -2 -196 1 -202 10 -6 9 -8 9 -8 0 0 -7 -7 -13 -15
-13 -10 0 -15 10 -15 34 l0 34 134 1 c120 1 135 -1 139 -17 3 -10 5 -6 6 11 1
27 16 37 23 15z m-1130 -23 c14 -30 -1 -90 -22 -90 -8 0 -15 7 -14 15 1 11 -9
15 -35 15 -20 0 -42 -4 -49 -9 -16 -10 -40 9 -45 37 -2 12 -2 3 0 -20 2 -26 0
-43 -6 -43 -14 0 -31 34 -31 64 0 50 5 53 101 54 86 1 90 1 101 -23z m278 4
c0 -12 7 -19 20 -19 13 0 20 7 20 20 0 15 7 20 28 20 26 0 29 -3 30 -37 1 -20
-3 -42 -9 -49 -10 -13 -49 -7 -49 7 0 12 -37 11 -45 -1 -4 -6 -21 -10 -38 -10
-18 0 -67 -1 -110 -3 -43 -2 -81 1 -83 5 -3 5 -9 6 -14 3 -4 -3 -6 4 -3 15 6
23 14 25 31 8 9 -9 12 -9 12 -1 0 7 -9 15 -20 18 -19 6 -26 25 -14 37 3 3 59
6 125 6 111 0 119 -1 119 -19z m151 -6 l2 -28 4 27 c4 26 7 27 63 27 56 -1 58
-2 64 -30 9 -48 0 -58 -57 -57 -29 0 -58 4 -64 10 -9 7 -13 7 -13 -1 0 -6 -6
-11 -14 -11 -14 0 -30 66 -20 82 12 19 34 7 35 -19z m-1523 -335 c6 -6 12 -16
12 -23 0 -6 11 -17 24 -23 14 -6 30 -20 36 -32 11 -20 9 -20 -158 -20 -119 0
-182 4 -213 14 -24 8 -70 17 -101 21 -67 7 -74 19 -20 35 70 20 125 22 171 6
81 -30 161 -14 161 32 0 11 8 13 38 7 20 -4 43 -11 50 -17z m216 -71 c3 3 6
-1 6 -10 0 -12 -9 -17 -29 -17 -24 0 -28 3 -24 20 4 15 9 17 23 10 9 -5 20 -6
24 -3z m3333 -99 c-3 -8 -6 -5 -6 6 -1 11 2 17 5 13 3 -3 4 -12 1 -19z m0
-110 c-3 -7 -5 -2 -5 12 0 14 2 19 5 13 2 -7 2 -19 0 -25z m-5210 -30 c-2 -13
-4 -5 -4 17 -1 22 1 32 4 23 2 -10 2 -28 0 -40z m753 22 c7 -17 10 -34 6 -37
-4 -4 -9 3 -13 15 -6 25 -23 30 -23 8 0 -8 -4 -17 -9 -20 -5 -4 -4 10 2 29 13
43 21 44 37 5z m249 -7 c0 -21 -3 -32 -6 -24 -5 11 -7 11 -14 0 -6 -10 -9 -8
-9 9 0 13 4 20 10 17 6 -3 10 3 10 14 0 12 2 21 5 21 3 0 5 -17 4 -37z m637
-5 c5 4 8 5 7 3 -2 -2 2 -10 8 -18 9 -11 7 -13 -12 -10 -15 3 -26 13 -29 28
l-6 24 -8 -25 c-4 -14 -10 -20 -12 -13 -3 7 0 22 7 35 l12 23 12 -27 c6 -16
15 -25 21 -20z m144 7 c0 -27 -4 -35 -17 -34 -11 0 -13 3 -5 6 15 6 16 33 2
33 -6 0 -5 6 2 15 18 20 18 19 18 -20z m786 0 c0 -19 -3 -35 -8 -35 -10 0 -11
54 -1 63 3 4 7 7 7 7 1 0 1 -16 2 -35z m846 -12 c-10 -28 -10 -28 -11 12 -1
28 2 36 10 28 8 -8 8 -19 1 -40z m973 15 c12 -28 14 -29 15 -10 0 12 5 22 11
22 6 0 8 -9 4 -20 -5 -15 -2 -20 10 -20 11 0 15 5 11 15 -3 10 1 15 12 15 29
0 22 -35 -7 -37 -14 0 -27 -6 -29 -13 -2 -6 -11 -2 -20 12 -9 13 -16 26 -14
31 1 4 -2 7 -8 7 -5 0 -10 -7 -10 -15 0 -8 -4 -15 -10 -15 -5 0 -10 2 -10 5 0
8 23 55 27 55 2 0 10 -15 18 -32z m409 0 c-6 -45 -14 -48 -14 -5 0 21 4 37 9
37 4 0 7 -14 5 -32z m34 7 c-3 -3 -9 2 -12 12 -6 14 -5 15 5 6 7 -7 10 -15 7
-18z m670 14 c-10 -5 -18 -18 -19 -27 0 -11 -2 -12 -6 -4 -6 15 14 42 31 42 6
0 3 -5 -6 -11z m324 -24 c-2 -19 -6 -35 -8 -35 -2 0 -4 16 -4 35 0 19 4 35 8
35 4 0 6 -16 4 -35z m36 10 c-3 -3 -9 2 -12 12 -6 14 -5 15 5 6 7 -7 10 -15 7
-18z m103 -16 l-9 -34 -1 31 c-1 17 2 34 6 37 12 13 14 -1 4 -34z m316 -11
c-2 -13 -4 -5 -4 17 -1 22 1 32 4 23 2 -10 2 -28 0 -40z m538 28 c0 -37 -15
-44 -15 -8 0 18 4 32 8 32 4 0 8 -11 7 -24z m116 -11 c5 4 9 -4 9 -17 0 -17
-3 -19 -9 -9 -7 11 -9 11 -14 0 -3 -8 -5 4 -5 26 0 22 3 30 5 17 2 -12 9 -20
14 -17z m106 28 c-14 -4 -18 -12 -15 -33 2 -16 1 -27 -4 -24 -10 6 -11 48 -1
57 3 4 13 6 22 6 12 -1 11 -3 -2 -6z m-7080 -40 c-3 -10 -5 -4 -5 12 0 17 2
24 5 18 2 -7 2 -21 0 -30z m2817 10 c-6 -26 -5 -26 8 -10 13 18 14 18 14 -1 0
-30 -30 -20 -34 11 -2 15 2 27 8 27 6 0 8 -10 4 -27z m694 -5 l1 -33 -14 25
c-13 24 -11 40 4 40 4 0 8 -15 9 -32z m72 16 c0 -8 -5 -12 -10 -9 -6 4 -8 11
-5 16 9 14 15 11 15 -7z m2147 -9 c-5 -37 -17 -42 -17 -7 0 18 5 32 10 32 6 0
9 -11 7 -25z m-5610 -22 c-3 -10 -5 -4 -5 12 0 17 2 24 5 18 2 -7 2 -21 0 -30z
m26 12 c-7 -21 -13 -19 -13 6 0 11 4 18 10 14 5 -3 7 -12 3 -20z m1635 -3 c-5
-27 -28 -26 -28 2 0 19 4 24 15 19 9 -3 15 -12 13 -21z m116 8 c-6 -6 -19 -7
-30 -3 -17 6 -17 8 6 13 29 8 38 4 24 -10z m23 -17 c-3 -10 -5 -4 -5 12 0 17
2 24 5 18 2 -7 2 -21 0 -30z m32 14 c1 16 41 12 41 -4 0 -7 5 -13 12 -13 6 0
8 -3 5 -6 -4 -4 -13 -1 -21 5 -10 9 -16 9 -21 1 -9 -15 -35 7 -34 29 0 12 2
11 9 -4 5 -11 9 -15 9 -8z m735 9 c18 4 25 1 29 -15 3 -12 1 -21 -4 -21 -5 0
-9 7 -9 15 0 8 -4 15 -10 15 -5 0 -10 -7 -10 -15 0 -8 -4 -15 -9 -15 -10 0
-21 25 -20 43 0 8 2 8 6 0 3 -8 14 -11 27 -7z m76 -13 c0 -26 -1 -26 -14 -7
-11 14 -11 21 -3 26 17 11 17 11 17 -19z m110 2 c0 -25 -15 -24 -16 1 -1 13 2
21 7 18 5 -3 9 -11 9 -19z m690 -6 c0 -10 -4 -19 -10 -19 -5 0 -10 12 -10 26
0 14 4 23 10 19 6 -3 10 -15 10 -26z m47 -1 c-3 -7 -5 -2 -5 12 0 14 2 19 5
13 2 -7 2 -19 0 -25z m100 -5 c-3 -10 -5 -4 -5 12 0 17 2 24 5 18 2 -7 2 -21
0 -30z m67 -11 c-3 -4 -9 -1 -11 6 -4 10 -8 10 -19 1 -19 -16 -24 -9 -13 19
l9 22 21 -21 c11 -11 17 -24 13 -27z m36 23 c0 -14 -4 -25 -9 -25 -4 0 -6 11
-3 25 2 14 6 25 8 25 2 0 4 -11 4 -25z m731 11 c5 3 9 -5 8 -18 0 -13 -3 -17
-6 -9 -4 10 -7 10 -13 1 -4 -7 -7 0 -7 16 0 16 2 23 4 16 3 -6 9 -10 14 -6z
m165 -9 c-1 -20 -7 -24 -33 -24 -18 0 -33 5 -33 10 0 5 7 6 16 3 11 -4 15 -2
11 8 -4 10 2 16 16 19 12 2 23 5 23 6 1 0 1 -9 0 -22z m42 10 c13 4 14 3 3 -5
-7 -5 -17 -16 -22 -23 -6 -10 -8 -5 -8 16 0 17 3 25 5 18 3 -7 13 -9 22 -6z
m827 -16 c-3 -12 -14 -21 -23 -21 -16 1 -16 2 1 14 9 7 17 19 17 26 0 7 3 11
6 7 3 -3 3 -15 -1 -26z m125 2 c0 -22 -2 -25 -10 -13 -6 9 -10 10 -10 3 0 -7
-14 -11 -35 -10 -26 2 -35 7 -35 20 0 21 7 22 26 2 20 -20 35 -19 27 2 -5 12
-2 15 10 10 9 -3 17 -2 17 3 0 6 2 10 5 10 3 0 5 -12 5 -27z m217 -10 c-3 -10
-5 -4 -5 12 0 17 2 24 5 18 2 -7 2 -21 0 -30z m300 5 c-3 -7 -5 -2 -5 12 0 14
2 19 5 13 2 -7 2 -19 0 -25z m61 5 c5 24 22 21 22 -3 0 -17 -5 -20 -27 -16
-16 2 -31 5 -35 5 -5 1 -8 10 -8 21 0 19 1 19 22 -2 20 -20 23 -21 26 -5z
m851 0 c0 -16 -3 -22 -6 -15 -2 6 -9 9 -15 6 -5 -3 -4 3 4 15 17 27 18 27 17
-6z m39 19 c13 11 15 10 9 -5 -4 -10 -7 -22 -7 -26 0 -4 -6 -8 -14 -8 -8 0
-13 11 -13 26 0 14 2 20 4 13 4 -10 8 -10 21 0z m105 -6 c13 3 16 1 7 -3 -8
-3 -19 -12 -25 -20 -8 -10 -10 -7 -11 14 -1 16 0 23 3 17 2 -7 14 -10 26 -8z
m53 -9 c-1 -17 -6 -23 -18 -19 -15 4 -15 5 0 22 10 10 18 19 18 19 1 1 1 -10
0 -22z m77 -14 c-7 -18 -37 -12 -39 7 -1 10 1 11 3 2 7 -20 28 -8 25 14 -2 15
-1 16 7 5 5 -8 7 -20 4 -28z m-7346 5 c-3 -8 -6 -5 -6 6 -1 11 2 17 5 13 3 -3
4 -12 1 -19z m40 -3 c-4 -8 -12 -15 -19 -14 -10 0 -10 2 0 6 6 2 12 12 12 21
0 8 3 13 6 9 4 -3 4 -13 1 -22z m103 3 c0 -20 -25 -15 -34 7 -3 9 2 13 15 12
11 -1 19 -9 19 -19z m650 0 c0 -18 -2 -20 -9 -8 -6 8 -7 18 -5 22 9 14 14 9
14 -14z m43 15 c-7 -2 -19 -2 -25 0 -7 3 -2 5 12 5 14 0 19 -2 13 -5z m49 -11
c4 -12 -1 -18 -13 -18 -22 0 -23 2 -6 21 15 18 14 18 19 -3z m51 -2 c3 -11 1
-18 -4 -14 -5 3 -9 12 -9 20 0 20 7 17 13 -6z m107 0 c0 -15 -7 -20 -25 -20
-14 0 -25 5 -25 11 0 6 7 9 15 5 9 -3 15 0 15 9 0 8 5 15 10 15 6 0 10 -9 10
-20z m737 -12 c-3 -7 -5 -2 -5 12 0 14 2 19 5 13 2 -7 2 -19 0 -25z m208 2 c7
0 16 5 18 10 3 6 4 5 3 -2 -4 -18 -40 -16 -42 2 0 9 1 10 3 3 3 -7 11 -13 18
-13z m742 8 c-3 -8 -6 -5 -6 6 -1 11 2 17 5 13 3 -3 4 -12 1 -19z m850 -10
c-3 -7 -5 -2 -5 12 0 14 2 19 5 13 2 -7 2 -19 0 -25z m26 12 c3 -11 1 -20 -4
-20 -5 0 -9 9 -9 20 0 11 2 20 4 20 2 0 6 -9 9 -20z m911 5 c-4 -9 0 -15 9
-15 9 0 18 7 20 15 4 11 4 10 3 -2 -2 -23 -40 -24 -44 0 -2 9 1 17 7 17 6 0 8
-7 5 -15z m371 -5 c-37 -25 -41 -25 -41 -2 0 15 8 19 36 20 l35 2 -30 -20z
m652 -12 c-3 -7 -5 -2 -5 12 0 14 2 19 5 13 2 -7 2 -19 0 -25z m193 2 c5 0 11
8 13 18 3 12 5 11 6 -6 1 -17 -4 -23 -16 -20 -10 2 -18 10 -19 18 0 9 1 10 3
3 3 -7 8 -13 13 -13z m163 10 c3 -11 1 -18 -4 -14 -5 3 -9 12 -9 20 0 20 7 17
13 -6z m24 -12 c-3 -7 -5 -2 -5 12 0 14 2 19 5 13 2 -7 2 -19 0 -25z m50 10
c-3 -8 -6 -5 -6 6 -1 11 2 17 5 13 3 -3 4 -12 1 -19z m113 2 c0 -13 -5 -18
-15 -14 -11 5 -12 9 -2 20 16 18 17 17 17 -6z m33 -7 c7 3 11 10 9 16 -1 7 2
10 8 6 8 -5 7 -11 -1 -21 -18 -22 -39 -17 -38 9 1 17 2 18 6 4 3 -10 10 -16
16 -14z m767 7 c0 -13 -7 -20 -20 -20 -11 0 -20 4 -20 10 0 5 7 7 15 4 11 -5
13 -2 9 10 -3 9 -1 16 5 16 6 0 11 -9 11 -20z m290 -4 c0 -16 -2 -18 -9 -7 -7
11 -9 11 -14 0 -3 -9 -6 -6 -6 7 -1 12 5 21 14 21 9 0 15 -9 15 -21z m-3750
-1 c0 -8 -4 -15 -10 -15 -5 0 -10 7 -10 15 0 8 5 15 10 15 6 0 10 -7 10 -15z
m-1740 -3 c0 -5 -7 -9 -15 -9 -8 0 -12 4 -9 9 3 4 9 8 15 8 5 0 9 -4 9 -8z
m1180 4 c0 -3 -4 -8 -10 -11 -5 -3 -10 -1 -10 4 0 6 5 11 10 11 6 0 10 -2 10
-4z m665 -6 c3 -5 1 -10 -4 -10 -6 0 -11 5 -11 10 0 6 2 10 4 10 3 0 8 -4 11
-10z m275 6 c0 -3 -4 -8 -10 -11 -5 -3 -10 -1 -10 4 0 6 5 11 10 11 6 0 10 -2
10 -4z m1387 -128 c-3 -8 -6 -5 -6 6 -1 11 2 17 5 13 3 -3 4 -12 1 -19z m666
-48 c364 0 951 0 1305 0 l642 0 0 -1364 0 -1365 -22 -15 c-20 -14 -428 -16
-4128 -16 -2258 0 -4110 4 -4116 8 -34 22 -34 38 -34 1401 l0 1351 458 0 c251
0 1529 0 2840 0 1891 0 2382 3 2383 13 0 9 2 9 6 -1 4 -10 141 -12 666 -12z
m-2171 -2872 c-7 -7 -12 -8 -12 -2 0 14 12 26 19 19 2 -3 -1 -11 -7 -17z m30
-49 c-1 -13 3 -34 9 -46 17 -33 -2 -52 -50 -49 -52 3 -71 20 -71 65 0 48 10
57 67 55 45 -1 48 -2 45 -25z"/>
<path d="M6774 6405 c-24 -36 -16 -161 11 -181 25 -18 204 -20 228 -1 21 15
27 168 7 192 -10 12 -37 15 -121 15 -105 0 -109 -1 -125 -25z m173 -37 c27
-25 29 -54 7 -86 -18 -26 -74 -30 -98 -6 -24 24 -20 80 6 98 31 22 58 20 85
-6z"/>
<path d="M6897 6353 c-10 -10 -8 -63 2 -63 9 0 21 33 21 58 0 13 -13 16 -23 5z"/>
<path d="M7232 6418 c-8 -8 -12 -45 -12 -100 0 -107 1 -108 138 -108 120 0
125 4 130 101 3 52 0 75 -12 94 -16 24 -20 25 -124 25 -71 0 -112 -4 -120 -12z
m169 -46 c45 -38 16 -122 -43 -122 -25 0 -68 44 -68 70 0 26 43 70 68 70 11 0
30 -8 43 -18z"/>
<path d="M7323 6334 c-9 -24 10 -49 38 -49 20 0 25 6 27 33 3 30 1 32 -28 32
-19 0 -33 -6 -37 -16z m42 -14 c3 -5 1 -10 -4 -10 -6 0 -11 5 -11 10 0 6 2 10
4 10 3 0 8 -4 11 -10z"/>
<path d="M7682 6418 c-7 -7 -12 -44 -12 -94 0 -112 3 -114 135 -114 128 0 135
6 135 116 0 99 -7 104 -141 104 -68 0 -109 -4 -117 -12z m170 -55 c39 -35 8
-113 -45 -113 -58 0 -89 69 -50 112 20 22 70 23 95 1z"/>
<path d="M7810 6339 c0 -6 -9 -9 -20 -6 -17 4 -20 1 -18 -24 4 -53 68 -29 68
25 0 9 -7 16 -15 16 -8 0 -15 -5 -15 -11z"/>
<path d="M3243 6353 c-4 -10 2 -23 18 -36 24 -20 24 -20 2 -14 -27 6 -32 -17
-7 -27 24 -9 31 -8 48 10 9 8 16 11 16 6 0 -14 27 -22 48 -15 14 6 13 8 -8 14
-24 7 -24 7 -2 8 26 1 29 23 6 42 -14 11 -19 10 -33 -8 -17 -20 -18 -20 -42
-2 -24 18 -24 18 -1 12 25 -6 31 12 6 21 -27 10 -44 7 -51 -11z"/>
<path d="M3393 6363 c3 -5 1 -32 -2 -60 -6 -41 -4 -53 6 -53 9 0 13 17 13 60
0 36 -4 60 -11 60 -5 0 -8 -3 -6 -7z"/>
<path d="M3530 6319 c0 -49 1 -50 28 -47 22 2 28 8 30 35 2 24 -1 33 -17 38
-12 3 -21 11 -21 16 0 5 -4 9 -10 9 -5 0 -10 -23 -10 -51z m40 -15 c0 -8 -4
-12 -10 -9 -5 3 -10 10 -10 16 0 5 5 9 10 9 6 0 10 -7 10 -16z"/>
<path d="M4040 6362 c0 -5 -11 -14 -25 -20 -43 -20 -27 -72 22 -72 21 0 23 4
23 50 0 28 -4 50 -10 50 -5 0 -10 -4 -10 -8z m0 -57 c0 -8 -4 -15 -10 -15 -5
0 -10 7 -10 15 0 8 5 15 10 15 6 0 10 -7 10 -15z"/>
<path d="M4154 6356 c-8 -21 0 -101 9 -99 11 4 15 113 4 113 -4 0 -10 -6 -13
-14z"/>
<path d="M4262 6312 c0 -60 9 -79 22 -46 10 27 7 69 -8 89 -13 17 -14 13 -14
-43z"/>
<path d="M4302 6325 c6 -63 18 -68 18 -7 0 30 -4 52 -11 52 -6 0 -9 -17 -7
-45z"/>
<path d="M4853 6359 c-15 -15 -5 -38 21 -50 20 -8 20 -9 1 -8 -34 2 -38 0 -25
-16 15 -19 31 -19 55 -2 12 10 15 18 9 28 -5 8 -9 23 -9 34 0 23 -34 32 -52
14z"/>
<path d="M5810 6362 c0 -4 -10 -12 -22 -17 -44 -19 -30 -75 18 -75 22 0 24 4
24 50 0 28 -4 50 -10 50 -5 0 -10 -3 -10 -8z m-9 -55 c-1 -12 -15 -9 -19 4 -3
6 1 10 8 8 6 -3 11 -8 11 -12z"/>
<path d="M3435 6338 c-3 -7 -6 -24 -7 -38 -3 -21 2 -26 25 -28 27 -3 28 -2 25
35 -2 27 -8 39 -21 41 -9 2 -19 -2 -22 -10z"/>
<path d="M3612 6338 c-28 -28 0 -77 35 -63 17 7 17 8 -1 14 -19 7 -19 8 1 13
16 4 23 0 29 -16 6 -19 7 -19 11 7 5 34 23 36 23 2 0 -14 5 -25 10 -25 6 0 10
11 10 25 0 14 5 25 10 25 6 0 10 -9 10 -19 0 -11 5 -23 11 -26 7 -5 9 6 7 31
-3 39 -3 39 -46 40 -27 0 -46 -4 -49 -13 -4 -10 -8 -9 -20 2 -18 18 -25 19
-41 3z"/>
<path d="M3856 6333 c-6 -14 -9 -15 -15 -4 -18 28 -30 6 -15 -27 15 -38 27
-36 42 8 11 31 -1 53 -12 23z"/>
<path d="M3890 6310 c0 -25 4 -39 10 -35 6 3 10 19 10 35 0 16 -4 32 -10 35
-6 4 -10 -10 -10 -35z"/>
<path d="M3925 6342 c-8 -9 -6 -60 4 -66 5 -3 12 9 17 27 l8 32 3 -32 c6 -46
25 -41 21 5 -2 30 -7 37 -25 38 -12 1 -25 -1 -28 -4z"/>
<path d="M4080 6335 c-26 -31 13 -82 44 -56 19 16 21 42 4 59 -16 16 -33 15
-48 -3z m35 -35 c-5 -8 -11 -8 -17 -2 -6 6 -7 16 -3 22 5 8 11 8 17 2 6 -6 7
-16 3 -22z"/>
<path d="M4199 6343 c-1 -4 -1 -12 0 -17 1 -4 -4 -14 -10 -22 -15 -18 -7 -26
26 -30 24 -2 26 0 23 34 -2 26 -8 38 -20 40 -10 2 -19 0 -19 -5z"/>
<path d="M4550 6335 c-10 -12 -10 -18 0 -30 16 -20 36 -19 44 1 6 16 -9 44
-24 44 -4 0 -13 -7 -20 -15z"/>
<path d="M4930 6310 c0 -25 4 -39 10 -35 6 3 10 19 10 35 0 16 -4 32 -10 35
-6 4 -10 -10 -10 -35z"/>
<path d="M4970 6335 c-6 -7 -10 -29 -8 -47 3 -27 9 -34 29 -36 18 -2 29 3 37
20 6 13 11 17 11 11 1 -19 51 -16 58 3 3 8 0 27 -6 40 -14 32 -43 28 -52 -6
l-6 -25 -4 24 c-5 28 -41 38 -59 16z m30 -31 c0 -8 -4 -12 -10 -9 -5 3 -10 10
-10 16 0 5 5 9 10 9 6 0 10 -7 10 -16z"/>
<path d="M5150 6330 c0 -13 -6 -17 -20 -13 -11 3 -20 0 -20 -6 0 -6 9 -11 20
-11 11 0 20 -7 20 -16 0 -8 5 -12 10 -9 6 3 10 15 10 26 0 10 5 19 10 19 6 0
10 -11 10 -25 0 -14 5 -25 10 -25 11 0 14 69 3 71 -42 7 -53 5 -53 -11z"/>
<path d="M5230 6335 c-26 -31 13 -82 44 -56 19 16 21 42 4 59 -16 16 -33 15
-48 -3z m35 -35 c-5 -8 -11 -8 -17 -2 -6 6 -7 16 -3 22 5 8 11 8 17 2 6 -6 7
-16 3 -22z"/>
<path d="M5307 6344 c-12 -12 -8 -44 6 -44 8 0 7 -3 -3 -10 -12 -8 -12 -10 3
-16 27 -10 46 12 38 44 -7 26 -30 40 -44 26z"/>
<path d="M5405 6342 c-9 -10 -5 -72 5 -72 6 0 10 11 10 25 0 14 5 25 10 25 6
0 10 -9 10 -19 0 -24 16 -36 23 -19 4 10 8 10 14 1 5 -7 30 -11 63 -10 55 2
55 3 55 34 1 35 -19 50 -41 32 -11 -9 -18 -8 -29 1 -20 16 -45 5 -45 -20 0
-27 -18 -26 -22 3 -2 15 -10 22 -25 23 -12 1 -25 -1 -28 -4z m155 -42 c13 -8
13 -10 -2 -10 -9 0 -20 5 -23 10 -8 13 5 13 25 0z"/>
<path d="M5663 6343 c-15 -6 -18 -73 -3 -73 6 0 10 14 10 30 0 17 5 30 10 30
6 0 10 5 10 10 0 11 -7 12 -27 3z"/>
<path d="M5702 6338 c-28 -28 0 -77 35 -63 17 7 16 8 -2 15 -17 7 -17 9 -2 9
22 1 23 37 1 45 -20 8 -18 8 -32 -6z"/>
<path d="M5852 6338 c-31 -31 -4 -76 36 -61 14 6 13 8 -8 14 -24 7 -24 7 -2 8
12 1 22 7 22 14 0 13 -19 37 -30 37 -3 0 -11 -5 -18 -12z"/>
<path d="M5913 6334 c-4 -10 0 -22 11 -30 16 -12 16 -12 -1 -17 -17 -4 -17 -4
0 -12 27 -11 46 11 38 43 -9 31 -38 41 -48 16z"/>
<path d="M6023 6343 c-19 -7 -16 -30 5 -42 16 -10 16 -10 -2 -11 -15 0 -17 -3
-9 -11 13 -13 53 -3 53 13 0 6 8 4 19 -6 18 -17 51 -13 51 7 0 5 9 2 20 -8 19
-17 50 -15 50 4 0 6 -7 8 -15 5 -9 -4 -15 0 -15 10 0 9 7 16 16 16 9 0 14 5
12 12 -7 19 -24 20 -42 3 -15 -15 -17 -15 -32 -1 -21 21 -31 20 -46 -4 -7 -11
-16 -20 -19 -20 -4 0 -9 9 -12 20 -5 20 -12 23 -34 13z m97 -35 c0 -16 -3 -19
-11 -11 -6 6 -8 16 -5 22 11 17 16 13 16 -11z"/>
<path d="M6226 6319 c-8 -41 -5 -44 46 -44 42 0 43 1 40 30 -2 17 -7 34 -11
38 -12 12 -40 -3 -35 -18 3 -7 1 -16 -5 -20 -7 -3 -11 2 -11 14 0 33 -17 33
-24 0z"/>
<path d="M6369 6334 c-11 -14 -11 -18 6 -30 18 -14 18 -14 -1 -15 -17 0 -17
-2 4 -11 32 -16 47 1 35 38 -11 34 -26 40 -44 18z"/>
<path d="M6330 6305 c0 -19 5 -35 10 -35 6 0 10 16 10 35 0 19 -4 35 -10 35
-5 0 -10 -16 -10 -35z"/>
<path d="M6440 6329 c0 -5 5 -7 10 -4 6 3 10 8 10 11 0 2 -4 4 -10 4 -5 0 -10
-5 -10 -11z"/>
<path d="M6440 6279 c0 -5 5 -7 10 -4 6 3 10 8 10 11 0 2 -4 4 -10 4 -5 0 -10
-5 -10 -11z"/>
<path d="M1910 6115 c-30 -31 -32 -37 -19 -50 13 -14 19 -11 52 19 25 22 35
39 31 50 -9 25 -27 19 -64 -19z"/>
<path d="M2684 6100 c3 -18 6 -39 6 -46 0 -9 12 -14 35 -14 58 0 44 45 -24 80
-23 12 -24 11 -17 -20z"/>
<path d="M7213 6102 c-27 -4 -31 -33 -8 -52 11 -9 50 -10 156 -5 120 6 228 21
179 24 -13 1 -13 3 -1 10 11 7 6 11 -20 15 -40 6 -274 12 -306 8z"/>
<path d="M8413 6103 c-15 -5 0 -40 24 -58 11 -8 16 -45 19 -139 4 -129 14
-167 50 -196 15 -13 16 -9 13 62 -3 57 -10 84 -25 105 -15 20 -19 35 -14 54 4
14 6 44 5 67 -3 40 -3 41 36 47 32 6 39 11 39 30 0 19 -7 23 -46 29 -53 7 -83
7 -101 -1z"/>
<path d="M2963 6084 c-10 -26 14 -38 68 -36 60 2 69 7 69 33 0 17 -7 19 -65
19 -50 0 -67 -4 -72 -16z"/>
<path d="M3290 6080 c-9 -17 -7 -22 15 -30 34 -13 55 -3 55 26 0 20 -5 24 -30
24 -19 0 -33 -7 -40 -20z"/>
<path d="M7939 6078 c7 -20 16 -23 77 -26 38 -2 83 0 101 3 31 6 31 7 15 25
-14 17 -29 20 -109 20 -92 0 -92 0 -84 -22z"/>
<path d="M1865 6011 c4 -14 35 -178 35 -188 0 -2 9 -3 19 -3 21 0 26 15 36
115 4 33 9 68 11 78 5 15 -2 17 -51 17 -50 0 -56 -2 -50 -19z"/>
<path d="M1759 6003 c-2 -13 3 -148 5 -150 1 -1 20 -9 42 -18 36 -14 37 -14
17 1 -20 14 -23 25 -23 85 0 58 -3 70 -20 79 -11 6 -20 7 -21 3z"/>
<path d="M2056 5995 c-11 -12 -16 -34 -16 -79 0 -55 -3 -66 -22 -79 -22 -15
-20 -15 17 -3 l40 13 7 74 c7 80 0 100 -26 74z"/>
<path d="M1640 5861 l0 -71 43 1 c23 1 32 4 20 6 -20 4 -22 11 -25 66 -2 49
-6 62 -20 65 -16 3 -18 -5 -18 -67z"/>
<path d="M2167 5923 c-4 -3 -7 -32 -7 -64 0 -52 -2 -58 -22 -62 -13 -2 -4 -5
20 -6 l42 -1 0 70 c0 52 -3 70 -13 70 -8 0 -17 -3 -20 -7z"/>
<path d="M1877 5793 c-17 -16 -3 -23 48 -23 53 0 72 11 39 24 -21 8 -79 8 -87
-1z"/>
<path d="M7327 5763 c-10 -10 -8 -33 2 -33 6 0 9 9 8 20 -1 23 -1 22 -10 13z"/>
<path d="M1754 5750 c-17 -4 -36 -10 -42 -14 -20 -12 -13 -54 10 -70 23 -16
108 -22 108 -8 0 4 -16 8 -35 8 -81 0 -85 65 -4 74 35 4 39 6 19 11 -14 3 -39
2 -56 -1z"/>
<path d="M2410 5752 c-32 -5 -60 -30 -60 -53 0 -59 147 -66 165 -9 13 41 -38
71 -105 62z m60 -27 c28 -34 -18 -77 -60 -55 -22 12 -28 55 -7 63 24 10 55 7
67 -8z"/>
<path d="M7170 5734 c-43 -23 -51 -24 -282 -24 -231 0 -241 -1 -297 -24 -32
-14 -67 -23 -78 -20 -39 10 -113 -40 -113 -76 0 -13 43 1 67 23 33 29 36 17
12 -37 -40 -91 3 -224 93 -283 l42 -28 627 -3 c623 -2 691 1 673 30 -5 9 -2 9
9 -1 11 -9 17 -10 17 -2 0 6 7 11 15 11 52 0 71 206 26 287 -26 48 -71 90
-116 108 -21 9 -120 14 -323 16 l-293 4 -5 23 c-7 27 -16 26 -74 -4z m-454
-100 c19 -18 24 -31 20 -49 -3 -13 -2 -27 4 -30 5 -3 10 -13 10 -21 0 -18 -29
-19 -36 -1 -3 8 -18 14 -34 14 -38 0 -60 19 -60 54 0 21 7 32 28 43 36 20 39
20 68 -10z m-16 -214 c22 -42 -34 -82 -68 -48 -13 13 -16 50 -5 61 15 15 63 7
73 -13z m425 -11 c4 -17 3 -35 -3 -41 -14 -14 -74 -17 -89 -5 -9 6 -17 6 -26
-1 -7 -6 -18 -7 -26 -3 -7 5 -21 6 -31 4 -13 -4 -23 4 -34 26 -13 24 -13 31
-4 32 49 4 85 3 100 -3 9 -5 20 -3 23 2 4 6 15 8 26 5 11 -4 19 -2 19 4 0 6 9
11 19 11 14 0 21 -9 26 -31z m175 20 c0 6 6 11 14 11 29 0 38 -79 9 -81 -64
-4 -90 -3 -105 3 -9 5 -20 4 -23 -2 -9 -14 -21 -12 -39 6 -33 32 -11 57 53 59
28 1 54 5 58 8 3 4 12 2 20 -4 9 -9 13 -8 13 0z m525 2 c-6 -11 41 -8 52 2 10
11 51 8 58 -4 4 -5 -1 -26 -10 -46 -15 -31 -19 -34 -29 -21 -10 14 -14 14 -31
2 -13 -10 -22 -11 -32 -3 -7 6 -13 8 -13 3 0 -5 -17 -9 -37 -8 -26 1 -39 7
-44 20 -7 18 -8 18 -8 -1 -1 -15 -8 -20 -29 -19 -16 0 -34 4 -40 8 -6 3 -13 2
-17 -4 -4 -6 -10 -8 -15 -5 -14 8 -124 10 -137 2 -7 -4 -19 3 -28 15 -16 22
-17 22 -13 2 4 -17 1 -20 -18 -16 -13 2 -31 -1 -39 -8 -27 -22 -43 -6 -36 37
l6 38 213 -1 c116 0 212 3 212 8 0 4 9 8 21 8 11 0 18 -4 14 -9z m-944 -10
c11 -2 19 -30 13 -46 -4 -11 -21 -15 -55 -15 -27 0 -49 -4 -49 -10 0 -17 -23
-11 -53 13 -25 20 -26 24 -14 42 12 17 25 20 83 19 38 -1 72 -2 75 -3z"/>
<path d="M6661 5620 c-19 -11 -9 -45 14 -45 13 0 21 8 23 21 3 23 -17 37 -37
24z"/>
<path d="M6650 5401 c0 -6 5 -13 10 -16 6 -3 10 1 10 9 0 9 -4 16 -10 16 -5 0
-10 -4 -10 -9z"/>
<path d="M1420 5700 c0 -38 4 -50 15 -50 8 0 15 9 15 20 0 11 4 20 9 20 4 0
20 -9 34 -20 35 -28 56 -26 29 3 -20 21 -20 24 -6 39 25 24 8 38 -47 38 l-49
0 0 -50z m68 28 c-7 -19 -38 -22 -38 -4 0 10 9 16 21 16 12 0 19 -5 17 -12z"/>
<path d="M1570 5700 l0 -50 56 0 c34 0 53 4 49 10 -3 6 -19 10 -36 10 -38 0
-39 27 -1 33 l27 4 -27 2 c-43 2 -35 29 10 34 27 3 22 4 -20 5 l-58 2 0 -50z"/>
<path d="M1886 5711 c-15 -22 -26 -45 -26 -51 0 -15 17 -12 24 5 3 9 19 15 41
15 22 0 38 -6 41 -15 6 -15 34 -21 34 -7 0 4 -11 25 -23 47 -31 56 -59 58 -91
6z m54 -7 c0 -8 -7 -14 -15 -14 -15 0 -21 21 -9 33 10 9 24 -2 24 -19z"/>
<path d="M2032 5703 c4 -58 28 -72 28 -17 l0 38 38 -37 c51 -50 62 -48 62 13
0 28 -4 50 -10 50 -5 0 -10 -14 -10 -31 l0 -31 -39 31 c-57 45 -73 42 -69 -16z"/>
<path d="M2218 5743 c31 -4 32 -6 32 -49 0 -32 4 -44 15 -44 11 0 15 12 15 44
0 43 1 45 33 49 17 2 -4 4 -48 4 -44 0 -65 -2 -47 -4z"/>
<path d="M1446 5514 c-9 -24 -2 -26 12 -4 7 11 8 20 3 20 -5 0 -12 -7 -15 -16z"/>
<path d="M1960 5504 c0 -8 5 -12 10 -9 6 3 10 10 10 16 0 5 -4 9 -10 9 -5 0
-10 -7 -10 -16z"/>
<path d="M1470 5499 c0 -5 5 -7 10 -4 6 3 10 8 10 11 0 2 -4 4 -10 4 -5 0 -10
-5 -10 -11z"/>
<path d="M1536 5502 c-3 -5 1 -9 9 -9 8 0 12 4 9 9 -3 4 -7 8 -9 8 -2 0 -6 -4
-9 -8z"/>
<path d="M1605 5500 c3 -5 8 -10 11 -10 2 0 4 5 4 10 0 6 -5 10 -11 10 -5 0
-7 -4 -4 -10z"/>
<path d="M1870 5499 c0 -5 5 -7 10 -4 6 3 10 8 10 11 0 2 -4 4 -10 4 -5 0 -10
-5 -10 -11z"/>
<path d="M1300 5320 c13 -9 13 -11 0 -20 -13 -8 -13 -10 1 -10 9 0 19 3 22 7
9 8 -12 33 -27 33 -6 0 -4 -5 4 -10z"/>
<path d="M6875 5179 c-4 -12 -3 -41 4 -149 1 -18 4 -21 10 -12 4 8 7 40 5 72
-4 51 -1 61 16 70 11 6 25 8 30 5 6 -3 10 -1 10 4 0 6 -9 11 -19 11 -11 0 -26
3 -35 6 -9 3 -18 0 -21 -7z"/>
<path d="M3410 5610 c0 -5 7 -10 15 -10 8 0 15 5 15 10 0 6 -7 10 -15 10 -8 0
-15 -4 -15 -10z"/>
<path d="M4588 5583 c6 -2 18 -2 25 0 6 3 1 5 -13 5 -14 0 -19 -2 -12 -5z"/>
<path d="M5670 5399 c0 -5 5 -7 10 -4 6 3 10 8 10 11 0 2 -4 4 -10 4 -5 0 -10
-5 -10 -11z"/>
<path d="M3531 5425 c1 -19 18 -51 18 -35 0 8 -4 22 -9 30 -5 8 -9 11 -9 5z"/>
<path d="M3680 5415 c-7 -9 -11 -18 -8 -20 3 -3 11 1 18 10 7 9 11 18 8 20 -3
3 -11 -1 -18 -10z"/>
<path d="M3716 5395 c-11 -8 -15 -15 -9 -15 6 0 16 7 23 15 16 19 11 19 -14 0z"/>
<path d="M5365 4340 c-3 -5 -1 -10 4 -10 6 0 11 5 11 10 0 6 -2 10 -4 10 -3 0
-8 -4 -11 -10z"/>
<path d="M5316 4301 c-15 -17 -15 -19 1 -32 16 -13 17 -12 4 3 -11 15 -11 19
3 24 9 3 24 0 33 -7 15 -13 15 -12 2 9 -17 27 -21 27 -43 3z"/>
<path d="M2094 4261 c-17 -10 -38 -34 -47 -53 -25 -52 -49 -68 -118 -79 -71
-12 -75 -12 -137 -3 -35 5 -50 2 -73 -15 l-28 -21 -26 24 c-35 32 -69 40 -103
22 -34 -17 -122 -10 -122 10 0 8 -13 28 -29 46 -27 30 -35 33 -84 32 -34 0
-64 -6 -80 -17 -69 -45 -107 -190 -74 -279 11 -30 14 -54 8 -78 -11 -49 5
-101 41 -130 26 -23 29 -30 23 -62 -5 -24 -15 -39 -31 -47 -13 -6 -33 -25 -43
-42 -19 -30 -19 -50 -16 -348 2 -174 3 -324 4 -333 1 -16 12 -18 86 -18 l85 0
2 103 c1 56 0 141 -1 188 -3 84 3 130 17 128 31 -5 58 5 81 30 17 18 43 32 67
36 21 4 53 18 71 31 45 34 53 30 53 -23 0 -84 57 -163 119 -163 53 0 101 48
116 118 8 36 12 38 51 17 16 -8 38 -15 49 -15 11 0 33 7 49 15 15 8 40 15 55
15 14 0 44 9 66 19 36 16 43 16 72 3 17 -8 37 -25 43 -37 33 -61 157 -57 190
5 11 20 40 28 40 11 0 -5 16 -16 36 -26 41 -19 78 -14 111 17 15 14 29 19 47
14 14 -3 42 1 65 10 37 14 42 14 63 0 24 -17 79 -20 113 -7 13 6 31 3 50 -7
40 -20 107 -19 140 2 25 16 29 16 99 -9 72 -25 74 -26 110 -9 20 10 36 22 36
27 0 21 63 -5 94 -38 28 -29 40 -35 75 -35 41 0 101 23 101 38 0 12 131 6 163
-7 44 -17 66 -13 98 18 26 26 29 37 30 93 0 35 4 88 9 118 25 149 25 144 -6
179 -19 21 -42 34 -66 38 -32 5 -41 1 -66 -24 -19 -18 -32 -45 -37 -71 -8 -51
-17 -58 -50 -36 -22 14 -34 15 -71 7 -33 -8 -46 -7 -54 2 -16 19 -65 26 -101
13 -23 -8 -45 -8 -86 2 -46 10 -57 10 -71 -3 -11 -10 -35 -15 -68 -14 -37 2
-57 -3 -71 -15 -27 -25 -34 -22 -68 25 -45 62 -105 67 -150 11 -19 -22 -23
-23 -57 -12 -29 8 -47 9 -75 0 -27 -8 -40 -8 -50 0 -23 18 -100 14 -123 -7
-15 -13 -40 -19 -93 -22 -39 -2 -76 -8 -81 -13 -18 -18 -51 -10 -78 19 -32 34
-67 42 -116 29 -25 -7 -48 -7 -73 1 -26 8 -45 8 -64 1 -14 -5 -41 -10 -59 -10
-17 0 -48 -8 -68 -18 -37 -20 -67 -15 -99 14 -11 10 -36 15 -75 14 -33 -1 -80
2 -105 5 -52 8 -101 -11 -119 -45 -14 -26 -42 -26 -65 0 -10 11 -26 20 -35 20
-25 0 -40 21 -40 55 0 16 -9 45 -20 63 -11 18 -20 42 -20 53 0 18 4 20 23 13
12 -4 45 -8 72 -8 30 -1 62 -8 78 -18 36 -24 105 -23 137 2 19 14 35 18 65 14
28 -4 50 0 75 14 l35 19 30 -35 c26 -29 36 -34 70 -33 67 2 93 2 136 0 27 -1
49 5 68 19 21 15 38 19 72 15 38 -4 50 0 87 26 40 30 44 31 65 16 42 -29 127
-16 165 25 25 27 37 21 46 -21 16 -82 92 -126 161 -93 23 11 41 28 47 46 6 15
12 28 14 28 2 0 21 -9 41 -20 21 -11 52 -20 69 -20 17 0 49 -7 70 -16 46 -19
98 -8 134 31 22 24 24 24 42 8 13 -11 35 -17 71 -16 29 0 60 -5 72 -13 11 -8
41 -14 67 -14 38 0 54 6 80 28 18 16 46 32 62 36 30 7 69 35 132 93 42 39 47
88 11 121 -13 12 -28 22 -33 22 -6 0 -23 13 -39 30 -15 16 -41 32 -56 35 -35
8 -91 -9 -114 -35 -17 -19 -18 -19 -50 5 -37 29 -85 32 -125 9 -27 -17 -29
-16 -69 17 -26 22 -45 47 -51 71 -11 40 -49 68 -92 68 -37 0 -86 -36 -108 -79
-36 -71 -84 -82 -94 -22 -8 52 -53 91 -106 91 -33 0 -44 -6 -74 -41 -20 -23
-40 -62 -47 -90 -7 -27 -17 -49 -23 -49 -5 0 -21 11 -35 24 -57 52 -123 49
-169 -8 -18 -23 -26 -26 -55 -21 -44 9 -129 78 -142 117 -14 40 -59 78 -93 78
-15 0 -41 -9 -58 -19z m73 -68 c6 -15 -4 -65 -22 -105 -6 -15 -2 -18 20 -18
14 0 35 5 47 11 11 6 23 8 26 4 13 -13 -32 -35 -70 -35 l-38 0 0 -73 c0 -45 5
-80 13 -91 13 -17 15 -17 35 9 12 16 25 45 28 66 8 46 39 99 58 99 17 0 49
-41 39 -49 -3 -3 -8 0 -10 7 -3 6 -8 12 -13 12 -10 0 -30 -55 -30 -81 0 -28
19 -23 26 6 3 14 12 25 20 25 15 0 17 -10 14 -47 -3 -40 21 -25 43 27 22 52
44 69 33 24 -10 -38 -48 -93 -70 -100 -11 -4 -24 -1 -30 7 -6 8 -25 14 -43 15
-23 1 -34 -5 -42 -22 -12 -27 -56 -42 -80 -27 -9 5 -23 25 -32 43 l-16 33 -7
-29 c-10 -37 -24 -54 -47 -54 -29 0 -41 36 -37 116 2 41 0 74 -3 74 -9 0 -39
-69 -39 -92 0 -17 -5 -19 -27 -15 -20 4 -32 -2 -50 -24 -26 -31 -50 -37 -59
-16 -3 8 -19 13 -41 12 -27 0 -39 -6 -46 -23 -13 -29 -54 -40 -74 -19 -9 9
-15 32 -15 58 1 39 -9 58 -30 59 -5 0 -8 -7 -8 -15 0 -20 -59 -85 -76 -85 -8
0 -17 7 -21 16 -3 8 -12 13 -21 9 -24 -9 -52 5 -52 26 0 22 -8 24 -33 5 -11
-9 -21 -37 -28 -77 -5 -35 -12 -72 -15 -81 -7 -23 -51 -24 -76 -1 -31 28 -21
70 31 127 21 23 22 28 7 22 -29 -10 -53 2 -66 35 -24 56 2 145 52 182 22 17
32 18 51 10 27 -13 44 -60 28 -76 -8 -8 -11 -5 -11 8 0 11 -4 27 -10 35 -15
24 -45 -13 -64 -79 -17 -60 -14 -91 9 -91 18 0 32 20 40 58 10 50 40 35 47
-23 l3 -30 38 53 c43 57 58 63 81 30 18 -26 20 -38 6 -38 -5 0 -10 7 -10 15 0
8 -4 15 -9 15 -13 0 -33 -55 -29 -82 4 -23 4 -23 18 5 19 39 40 35 40 -8 0
-43 10 -44 34 -4 12 21 17 42 13 64 -7 40 12 71 38 62 11 -5 15 -13 10 -25
-13 -33 -10 -37 25 -37 l35 0 0 -62 c0 -34 3 -64 7 -68 10 -10 36 47 44 94 7
45 37 91 59 91 17 0 38 -36 31 -53 -2 -7 -5 -4 -5 6 -2 45 -41 -16 -41 -64 0
-28 19 -23 26 6 9 35 28 26 32 -13 2 -18 7 -32 11 -32 13 0 51 77 51 104 0 30
23 44 44 27 10 -8 16 -8 26 4 7 8 20 15 30 15 33 0 40 -23 34 -104 -5 -50 -3
-76 3 -76 16 0 44 78 50 137 5 43 3 54 -11 59 -22 8 -20 24 3 24 14 0 21 10
25 36 7 35 36 74 56 74 6 0 13 -7 17 -17z m951 -21 c2 -17 -4 -44 -12 -61 -9
-16 -16 -32 -16 -36 0 -9 50 -5 71 5 15 8 24 6 40 -9 18 -17 21 -28 17 -75 -3
-31 -1 -56 3 -56 13 0 29 36 29 65 0 20 4 26 18 23 13 -2 18 -16 22 -62 3 -33
10 -61 17 -63 15 -5 36 61 37 117 1 38 4 45 21 45 17 0 20 -6 17 -34 -2 -33
-2 -33 34 -26 l36 6 -3 -63 c-3 -51 -1 -63 11 -63 10 0 22 23 35 70 29 100 57
135 94 115 11 -6 23 -26 27 -45 6 -36 21 -44 42 -23 6 6 14 9 17 6 10 -9 -25
-38 -46 -38 -10 0 -19 -4 -19 -8 0 -34 -82 -70 -92 -40 -3 7 -13 -6 -24 -27
-13 -27 -27 -41 -42 -43 -38 -6 -54 16 -50 69 2 39 0 49 -15 53 -13 3 -24 -8
-42 -44 -13 -26 -31 -50 -40 -54 -18 -7 -55 26 -55 50 0 14 -1 14 -16 0 -18
-19 -36 -20 -51 -5 -8 8 -16 0 -29 -28 -14 -29 -26 -39 -47 -41 -33 -4 -67 22
-67 50 0 24 -8 23 -36 -7 -29 -32 -40 -31 -61 3 -9 15 -18 28 -19 30 -1 2 -11
-2 -22 -9 -17 -10 -23 -10 -36 0 -9 8 -16 20 -16 27 0 17 -10 17 -32 0 -13 -9
-18 -27 -18 -58 0 -81 -45 -87 -77 -11 -24 59 -10 201 28 276 24 46 47 57 66
31 19 -25 9 -94 -22 -159 -21 -42 -22 -52 -11 -64 12 -11 17 -10 35 8 11 11
23 33 27 48 10 49 14 55 31 51 15 -3 18 -13 15 -67 -3 -74 17 -82 32 -12 7 29
15 41 25 39 12 -2 17 -19 19 -66 2 -34 7 -62 12 -62 17 0 42 61 47 116 5 44 3
55 -11 60 -22 8 -20 24 2 24 13 0 22 12 31 40 21 72 63 91 69 32z m-558 -112
c11 -11 20 -31 20 -45 0 -27 18 -33 38 -13 7 7 12 8 12 2 0 -16 -22 -34 -42
-34 -10 0 -18 -4 -18 -8 0 -5 -9 -18 -20 -30 -61 -65 -123 32 -68 104 39 50
49 53 78 24z m-1162 -387 c2 -28 -6 -64 -23 -107 -27 -66 -32 -163 -10 -169 6
-1 22 33 37 77 33 97 37 101 91 97 35 -2 15 -69 -25 -84 -10 -3 -9 -9 4 -22
22 -24 43 -14 66 31 10 20 22 33 25 27 3 -5 -5 -28 -19 -50 -27 -46 -68 -62
-104 -43 -12 6 -22 10 -23 8 -34 -67 -45 -83 -59 -86 -22 -4 -38 52 -38 131 0
36 -4 57 -11 57 -14 0 -4 92 13 124 35 68 71 72 76 9z m2456 -13 c-1 -14 -7
-67 -15 -118 -12 -84 -15 -93 -34 -90 -16 2 -21 12 -23 48 -3 39 7 112 25 173
8 29 48 18 47 -13z m-809 -56 c19 -29 13 -43 -10 -24 -12 10 -18 10 -30 0 -22
-18 -28 -7 -14 24 15 33 32 33 54 0z m-1298 -16 c4 -7 8 -17 8 -23 1 -5 5 -18
9 -27 4 -10 3 -31 -2 -48 -13 -36 -3 -38 34 -7 17 15 29 38 33 63 5 30 11 39
26 39 17 0 21 -9 25 -65 4 -58 6 -63 18 -43 6 12 12 34 12 48 0 20 4 26 18 23
13 -2 18 -15 20 -48 6 -110 21 -113 52 -9 22 72 42 92 82 81 25 -6 23 -47 -3
-71 -23 -22 -20 -51 6 -51 20 0 52 54 60 102 7 42 33 53 42 18 5 -19 7 -19 22
-6 18 16 32 11 48 -17 9 -17 11 -16 23 12 22 54 78 27 66 -31 -3 -13 -7 -49
-10 -80 -5 -46 -3 -58 8 -58 13 0 56 93 56 120 0 5 5 12 12 16 17 11 2 -69
-22 -117 -22 -42 -50 -62 -74 -53 -22 8 -29 41 -24 112 4 69 -3 71 -28 7 -18
-49 -25 -53 -44 -30 -8 10 -10 29 -6 56 8 48 -7 45 -24 -6 -12 -35 -24 -44
-35 -25 -4 6 -15 1 -26 -14 -23 -29 -70 -42 -99 -26 -18 10 -24 7 -41 -14 -27
-34 -45 -33 -68 5 -11 18 -22 26 -25 20 -12 -19 -54 -13 -61 9 -8 25 -14 25
-43 0 -19 -16 -21 -23 -13 -39 16 -28 13 -77 -4 -111 -37 -72 -93 -4 -81 98 6
49 5 53 -18 61 -25 10 -40 48 -30 78 18 50 81 82 101 51z m993 -14 c8 -8 13
-28 13 -45 0 -16 3 -29 6 -29 14 1 31 17 40 42 13 34 39 48 69 37 15 -6 22
-17 22 -34 0 -14 -5 -25 -10 -25 -6 0 -10 6 -8 13 2 7 -1 14 -7 15 -6 1 -10
-19 -10 -45 0 -64 23 -69 63 -14 16 22 32 37 36 34 4 -4 13 3 22 15 21 30 79
31 94 1 18 -33 5 -49 -41 -49 -41 0 -41 0 -26 -22 10 -15 24 -22 41 -21 28 2
33 -6 14 -25 -16 -16 -73 -15 -86 1 -6 6 -13 24 -17 38 l-6 26 -34 -34 c-44
-44 -81 -42 -110 4 -26 42 -41 41 -79 -3 -37 -43 -68 -41 -84 5 -15 43 -39 35
-57 -20 -19 -55 -36 -66 -61 -38 -25 28 -34 149 -11 149 21 0 30 -17 37 -70
l6 -45 12 28 c9 21 9 34 1 49 -9 16 -7 24 5 37 15 14 18 14 26 1 5 -8 10 -24
10 -35 1 -19 1 -19 18 1 9 12 26 34 36 48 21 29 57 34 76 10z m624 10 c9 -3
16 -13 16 -21 0 -12 3 -12 16 2 19 18 44 5 44 -24 0 -9 8 -3 20 17 11 17 26
32 34 32 30 0 36 -26 30 -114 -10 -125 20 -112 60 26 19 68 46 90 77 62 20
-18 26 -44 10 -44 -5 0 -11 8 -14 18 -3 12 -8 7 -20 -20 -19 -41 -22 -68 -9
-68 5 0 14 12 21 26 15 34 37 25 33 -15 -3 -46 14 -38 45 22 17 33 28 46 31
35 5 -26 -36 -98 -65 -111 -20 -9 -27 -8 -37 3 -19 25 -69 19 -88 -12 -28 -44
-54 -52 -79 -27 -19 19 -21 29 -16 93 l6 71 -24 -52 c-34 -73 -61 -68 -56 9 2
48 -4 48 -24 2 -10 -25 -20 -34 -30 -30 -10 3 -20 -5 -30 -24 -18 -35 -54 -49
-70 -27 -7 10 -20 14 -33 10 -28 -7 -52 13 -52 43 0 39 30 102 51 107 24 6 49
-17 48 -46 0 -21 -1 -21 -11 3 l-10 25 -15 -34 c-8 -18 -12 -43 -10 -55 3 -19
4 -19 17 7 17 35 34 30 38 -11 2 -18 7 -32 12 -32 14 0 50 84 50 116 0 41 7
48 34 38z m-2074 -29 c0 -2 -11 -15 -25 -29 -29 -29 -32 -26 -9 9 14 22 34 34
34 20z m-30 -130 c0 -5 -5 -3 -10 5 -5 8 -10 20 -10 25 0 6 5 3 10 -5 5 -8 10
-19 10 -25z m2565 -19 c0 -22 -14 -29 -34 -17 -19 12 -6 43 16 39 10 -2 18
-12 18 -22z m-2555 -164 c0 -4 -5 -13 -12 -20 -9 -9 -9 -15 0 -24 7 -7 12 -19
12 -27 0 -11 -8 -8 -27 11 -26 27 -26 28 -8 48 19 20 35 26 35 12z"/>
<path d="M2141 4153 c0 -25 1 -26 9 -8 12 27 12 35 0 35 -5 0 -10 -12 -9 -27z"/>
<path d="M1284 3855 c-16 -25 -13 -75 6 -75 9 0 30 61 30 88 0 20 -18 14 -36
-13z"/>
<path d="M2781 4143 c-14 -54 -24 -133 -17 -133 12 0 35 59 42 107 8 62 -10
81 -25 26z"/>
<path d="M3091 4168 c0 -9 -4 -25 -7 -35 -5 -17 -5 -17 6 0 6 10 9 25 7 35 -4
15 -5 15 -6 0z"/>
<path d="M3123 4053 l-43 -4 0 -78 c0 -55 4 -82 14 -90 21 -18 53 29 66 97 6
31 13 63 15 70 3 6 1 11 -3 10 -4 -1 -26 -3 -49 -5z"/>
<path d="M3566 4052 c-3 -6 3 -21 14 -33 19 -24 19 -24 20 -3 0 24 -25 50 -34
36z"/>
<path d="M3550 3976 c0 -29 17 -43 33 -27 8 8 9 16 1 28 -17 27 -34 27 -34 -1z"/>
<path d="M2760 3903 c0 -16 5 -35 10 -43 7 -11 10 -4 10 28 0 23 -4 42 -10 42
-5 0 -10 -12 -10 -27z"/>
<path d="M2525 4051 c-4 -8 1 -21 14 -34 16 -17 21 -18 21 -6 0 8 -6 23 -13
34 -11 13 -16 15 -22 6z"/>
<path d="M2510 3983 c0 -16 4 -34 9 -42 7 -11 11 -9 20 7 9 18 8 25 -9 42
l-20 20 0 -27z"/>
<path d="M1367 3683 c-4 -7 -10 -36 -12 -65 l-5 -53 15 45 c16 46 17 96 2 73z"/>
<path d="M1466 3534 c-4 -10 -1 -14 6 -12 15 5 23 28 10 28 -5 0 -13 -7 -16
-16z"/>
<path d="M1711 3566 c-17 -20 -27 -86 -12 -86 6 0 14 12 17 28 4 15 11 33 17
40 15 19 -6 37 -22 18z"/>
<path d="M2060 3529 c0 -11 5 -17 10 -14 6 3 10 13 10 21 0 8 -4 14 -10 14 -5
0 -10 -9 -10 -21z"/>
<path d="M1735 3371 c-4 -22 -2 -48 3 -57 9 -16 11 -15 22 5 13 24 6 91 -10
91 -4 0 -11 -18 -15 -39z"/>
<path d="M2700 3562 c0 -11 7 -25 15 -32 12 -10 15 -9 15 8 0 11 -7 25 -15 32
-12 10 -15 9 -15 -8z"/>
<path d="M3007 3534 c-13 -13 -7 -24 14 -24 11 0 19 5 17 12 -5 14 -22 21 -31
12z"/>
<path d="M2690 3492 c0 -33 16 -43 27 -16 3 8 -2 23 -11 32 -15 15 -16 14 -16
-16z"/>
<path d="M5229 4223 c-13 -16 -20 -25 -15 -21 5 4 16 2 25 -5 14 -10 14 -10 3
5 -11 14 -10 19 10 32 12 9 18 16 12 16 -6 0 -21 -12 -35 -27z"/>
<path d="M5399 4203 c-13 -16 -12 -17 4 -4 9 7 17 15 17 17 0 8 -8 3 -21 -13z"/>
<path d="M5180 4180 c0 -5 5 -10 10 -10 6 0 10 5 10 10 0 6 -4 10 -10 10 -5 0
-10 -4 -10 -10z"/>
<path d="M5140 4146 c0 -2 8 -10 18 -17 15 -13 16 -12 3 4 -13 16 -21 21 -21
13z"/>
<path d="M5106 4121 c-16 -17 -16 -19 4 -24 16 -4 19 -2 11 7 -7 9 -7 16 1 24
7 7 10 12 7 12 -3 0 -14 -8 -23 -19z"/>
<path d="M5304 4118 l-19 -23 23 19 c12 11 22 21 22 23 0 8 -8 2 -26 -19z"/>
<path d="M6464 4103 c3 -8 6 -19 6 -24 0 -5 6 -9 13 -9 16 0 77 -61 77 -77 0
-28 -25 -22 -61 13 -23 22 -39 32 -39 24 0 -8 21 -35 46 -59 40 -39 44 -46 30
-59 -13 -13 -16 -12 -21 11 -4 15 -11 25 -15 22 -4 -3 -15 11 -24 30 -17 36
-36 46 -36 20 0 -7 -8 -18 -17 -24 -10 -5 -15 -13 -11 -17 4 -4 14 -2 22 5 12
10 15 3 18 -41 2 -29 0 -55 -4 -56 -5 -2 -5 -9 -1 -14 4 -7 -2 -9 -17 -5 -18
4 -20 3 -11 -6 6 -6 57 -24 113 -38 l102 -26 23 23 c13 13 23 30 23 39 0 8 9
15 20 15 25 0 25 9 3 26 -17 13 -17 14 5 20 39 11 24 24 -28 24 -27 0 -50 5
-50 10 0 6 15 10 33 10 38 0 71 28 65 56 -2 14 -19 21 -63 29 -47 9 -54 12
-31 16 l28 4 -31 23 c-40 29 -175 58 -167 35z m151 -101 c18 -13 13 -41 -13
-64 l-26 -23 17 27 c19 30 22 58 7 58 -5 0 -10 -7 -10 -16 0 -8 -4 -12 -10 -9
-5 3 -10 13 -10 21 0 15 28 19 45 6z m93 -14 c-7 -20 -54 -22 -61 -4 -5 13 1
16 29 16 24 0 34 -4 32 -12z m-208 -84 c0 -8 -4 -12 -10 -9 -5 3 -10 10 -10
16 0 5 5 9 10 9 6 0 10 -7 10 -16z m174 -12 c17 -10 -33 -22 -64 -15 -25 4
-28 8 -19 20 12 13 57 11 83 -5z m-79 -60 c49 -17 64 -34 33 -40 -19 -4 -118
33 -144 54 -18 14 -16 15 21 9 22 -4 63 -14 90 -23z"/>
<path d="M5060 4080 c0 -5 5 -10 11 -10 5 0 7 5 4 10 -3 6 -8 10 -11 10 -2 0
-4 -4 -4 -10z"/>
<path d="M5878 4082 c-26 -3 -41 -22 -18 -22 5 0 8 -37 7 -85 l-2 -85 58 0
c39 0 57 4 57 13 0 8 -15 11 -50 9 l-50 -4 0 35 c0 36 17 51 45 41 8 -4 15 -1
15 4 0 6 -12 12 -27 14 -23 2 -29 9 -31 34 -3 30 -2 30 36 28 22 -1 44 -4 50
-8 6 -3 13 -2 17 4 10 16 -52 29 -107 22z"/>
<path d="M5036 4061 c-3 -5 2 -15 12 -22 15 -12 16 -12 5 2 -7 9 -10 19 -6 22
3 4 4 7 0 7 -3 0 -8 -4 -11 -9z"/>
<path d="M5085 4050 c3 -5 14 -10 23 -10 15 0 15 -2 2 -10 -9 -6 -10 -10 -3
-10 21 0 24 19 4 29 -25 14 -34 14 -26 1z"/>
<path d="M5214 4038 l-19 -23 23 19 c12 11 22 21 22 23 0 8 -8 2 -26 -19z"/>
<path d="M6842 3761 c4 -28 1 -32 -26 -39 -22 -6 -32 -15 -34 -31 -3 -20 0
-23 22 -19 26 5 36 -7 36 -43 0 -14 7 -19 26 -19 20 0 25 5 24 23 -4 41 0 46
36 53 28 5 35 10 32 28 -2 17 -9 20 -35 18 -28 -3 -32 0 -35 25 -2 21 -9 29
-27 31 -21 3 -23 1 -19 -27z"/>
<path d="M5988 3673 c-21 -2 -38 -8 -38 -12 0 -5 -21 -11 -46 -14 -66 -7 -76
-23 -25 -38 23 -7 39 -14 37 -17 -3 -2 1 -24 9 -48 12 -42 12 -44 -7 -44 -15
0 -18 5 -13 20 5 15 0 23 -20 32 -21 10 -23 13 -10 20 29 17 17 31 -21 25 -88
-15 -114 -59 -123 -215 -9 -138 -5 -169 20 -175 17 -5 154 5 252 18 21 3 37 1
37 -4 0 -6 18 -4 42 5 50 17 65 13 78 -22 9 -22 13 -24 25 -14 13 10 15 8 15
-13 0 -14 4 -28 9 -31 14 -9 34 22 27 40 -4 9 -1 23 6 31 6 8 13 33 13 56 1
23 5 83 10 134 7 85 6 94 -14 119 -11 15 -21 31 -21 36 0 6 -26 34 -57 64 -62
58 -67 59 -185 47z m219 -390 c-3 -10 -5 -2 -5 17 0 19 2 27 5 18 2 -10 2 -26
0 -35z"/>
<path d="M7600 3205 l0 -335 79 0 c44 0 82 4 86 9 10 18 6 496 -5 499 -5 2
-10 8 -10 13 0 6 5 7 10 4 7 -5 10 17 8 67 l-3 73 -82 3 -83 3 0 -336z m153
275 c3 -11 1 -20 -4 -20 -5 0 -9 9 -9 20 0 11 2 20 4 20 2 0 6 -9 9 -20z
m-102 -98 c1 -51 -1 -95 -3 -98 -3 -3 -6 41 -7 98 -1 56 0 100 3 98 3 -3 6
-47 7 -98z m106 -44 c-3 -8 -6 -5 -6 6 -1 11 2 17 5 13 3 -3 4 -12 1 -19z
m-31 -35 c16 -21 18 -37 4 -28 -13 8 -13 -1 0 -26 8 -14 8 -24 0 -37 -11 -16
-11 -16 -6 1 3 11 2 15 -4 12 -6 -3 -10 -12 -10 -19 0 -7 -13 -25 -29 -39 -20
-17 -29 -33 -26 -47 2 -11 0 -20 -6 -20 -11 0 -2 67 13 98 10 18 9 25 -1 31
-7 5 -11 16 -9 26 3 15 5 15 27 -4 13 -11 27 -18 31 -16 9 6 6 57 -4 73 -11
19 5 14 20 -5z m-38 -17 c-7 -8 -15 -12 -17 -11 -5 6 10 25 20 25 5 0 4 -6 -3
-14z m40 -121 c-6 -13 -15 -22 -19 -19 -5 2 -1 14 9 24 22 26 24 25 10 -5z
m-18 -39 c0 -3 -4 -8 -10 -11 -5 -3 -10 -1 -10 4 0 6 5 11 10 11 6 0 10 -2 10
-4z m-63 -173 c-2 -16 -4 -5 -4 22 0 28 2 40 4 28 2 -13 2 -35 0 -50z m51 -18
c-3 -3 -9 2 -12 12 -6 14 -5 15 5 6 7 -7 10 -15 7 -18z"/>
<path d="M7112 3480 c-7 -11 -18 -17 -27 -14 -11 5 -15 -1 -15 -19 0 -17 -7
-28 -20 -32 -22 -7 -28 -35 -7 -35 13 0 130 70 152 91 6 6 -3 7 -23 3 -25 -5
-32 -3 -32 10 0 22 -13 20 -28 -4z"/>
<path d="M7210 3481 c0 -5 5 -13 10 -16 6 -3 10 -2 10 4 0 5 -4 13 -10 16 -5
3 -10 2 -10 -4z"/>
<path d="M7312 3411 c54 -35 58 -36 58 -18 0 12 -33 29 -80 42 -16 4 -9 -4 22
-24z"/>
<path d="M7161 3407 c-38 -19 -38 -37 1 -37 18 0 57 -11 86 -25 56 -26 63 -21
41 28 -19 43 -80 59 -128 34z"/>
<path d="M7149 3321 c12 -16 21 -37 21 -46 0 -21 28 -44 53 -45 24 0 80 56 71
71 -12 19 -88 49 -127 49 l-38 0 20 -29z"/>
<path d="M6561 3182 c-16 -29 -14 -50 3 -27 12 17 14 14 26 -33 6 -29 17 -55
23 -59 7 -4 8 0 4 12 -4 10 -12 38 -19 64 -14 58 -23 69 -37 43z"/>
<path d="M7206 3180 c-11 -3 -15 -9 -10 -13 10 -6 42 9 34 16 -3 3 -14 1 -24
-3z"/>
<path d="M6093 3123 c9 -2 23 -2 30 0 6 3 -1 5 -18 5 -16 0 -22 -2 -12 -5z"/>
<path d="M5840 3100 c-21 -6 -22 -8 -8 -14 21 -10 52 -4 51 9 -2 13 -13 14
-43 5z"/>
<path d="M6526 3094 c-8 -22 -7 -34 3 -34 5 0 11 11 13 25 6 28 -6 34 -16 9z"/>
<path d="M6010 3082 c0 -21 93 -32 105 -12 4 6 -7 10 -27 10 -18 0 -43 3 -55
6 -13 4 -23 2 -23 -4z"/>
<path d="M6154 2999 c-23 -51 -41 -71 -108 -126 -70 -56 -85 -64 -111 -59 -40
8 -77 36 -94 72 -15 32 -60 84 -73 84 -4 0 -8 -47 -8 -105 0 -100 10 -134 24
-80 8 30 19 31 54 6 72 -51 225 -38 270 22 13 16 16 15 45 -24 42 -55 42 -56
63 -114 9 -27 27 -59 39 -70 11 -12 26 -40 33 -62 10 -32 18 -42 40 -46 36 -7
44 2 32 43 -11 40 5 64 58 87 34 14 66 10 117 -14 l30 -14 -33 30 c-60 57
-152 34 -206 -50 -17 -28 -20 -29 -29 -13 -7 12 -6 23 2 35 6 11 10 38 9 61
l-1 43 -7 -50 c-6 -46 -7 -47 -8 -13 -1 21 -7 57 -14 81 -9 36 -9 51 4 81 8
21 19 36 24 34 5 -2 8 -7 6 -12 -2 -5 4 -4 12 3 9 7 13 17 10 22 -3 5 0 9 5 9
17 0 13 77 -4 84 -8 3 -15 12 -15 20 0 18 -30 36 -59 36 -11 0 -30 14 -43 30
-12 17 -25 30 -29 30 -4 0 -20 -27 -35 -61z m186 -113 c0 -3 -4 -8 -10 -11 -5
-3 -10 -1 -10 4 0 6 5 11 10 11 6 0 10 -2 10 -4z"/>
<path d="M5990 2915 c-16 -19 0 -19 26 0 16 12 16 14 3 15 -9 0 -22 -7 -29
-15z"/>
<path d="M5693 2899 c-8 -8 -8 -22 -1 -47 15 -57 28 -62 28 -11 0 52 -11 74
-27 58z"/>
<path d="M5631 2882 c-6 -12 -11 -29 -11 -39 -1 -13 -5 -11 -16 10 -19 36 -35
35 -24 -2 10 -35 -8 -121 -26 -121 -22 0 -94 -43 -94 -57 0 -7 -12 -15 -27
-19 -66 -14 -71 -21 -22 -35 112 -30 102 -61 -16 -53 -100 7 -139 -2 -85 -19
48 -16 40 -31 -17 -33 -76 -2 -84 -4 -79 -12 3 -5 18 -7 33 -5 15 2 58 -7 96
-21 37 -14 75 -26 85 -26 9 0 37 23 61 50 41 47 45 50 81 44 32 -5 40 -3 49
14 6 11 11 32 11 47 0 14 9 53 21 87 18 54 19 69 9 131 -6 39 -13 73 -15 75
-2 2 -8 -5 -14 -16z"/>
<path d="M4966 2868 c4 -6 6 -36 5 -65 -3 -69 17 -103 60 -103 38 0 55 35 58
121 2 54 0 59 -19 59 -19 0 -19 -2 -6 -22 8 -13 13 -32 11 -43 -2 -11 -4 -32
-4 -46 -1 -14 -7 -34 -15 -44 -12 -17 -18 -18 -40 -7 -24 11 -26 16 -26 75 0
36 5 68 12 75 9 9 6 12 -16 12 -18 0 -25 -4 -20 -12z"/>
<path d="M1316 2831 c-4 -5 -1 -13 4 -16 7 -4 10 -34 9 -73 l-3 -67 52 -3 c40
-2 52 0 52 11 0 11 -10 13 -44 10 -44 -5 -45 -5 -42 23 2 21 9 30 25 32 29 5
27 22 -4 22 -20 0 -25 5 -25 25 0 22 4 25 33 25 18 0 39 -6 46 -12 10 -11 12
-9 9 7 -3 16 -12 21 -55 23 -28 2 -54 -1 -57 -7z"/>
<path d="M1456 2803 c-10 -66 -10 -128 0 -133 5 -3 10 23 12 58 2 34 8 62 13
62 6 0 23 -27 37 -60 15 -33 30 -60 34 -60 3 0 8 38 10 85 2 70 0 85 -12 85
-12 0 -14 -11 -12 -52 l4 -53 -30 46 c-40 63 -49 66 -56 22z"/>
<path d="M1648 2833 c-54 -3 -68 -7 -68 -20 0 -12 3 -13 15 -3 24 20 35 2 35
-60 0 -46 -4 -61 -17 -69 -14 -8 -10 -10 22 -10 33 0 37 2 22 10 -15 9 -17 20
-13 66 5 62 17 83 39 65 8 -7 16 -10 19 -7 11 11 17 -109 6 -122 -8 -10 -5
-13 16 -13 23 0 25 3 20 30 -5 23 -3 30 9 30 9 0 23 -13 32 -30 9 -17 24 -30
34 -30 17 0 15 5 -11 31 l-31 30 22 23 c26 27 26 38 4 58 -22 19 -68 25 -155
21z m151 -37 c4 -22 -23 -46 -51 -46 -13 0 -18 8 -18 28 0 36 8 44 40 40 15
-2 26 -10 29 -22z"/>
<path d="M1856 2831 c-4 -5 -1 -13 4 -16 7 -4 10 -34 9 -73 l-3 -67 47 -3 c34
-2 47 1 47 10 0 10 -11 12 -40 10 -39 -4 -40 -3 -40 27 0 26 4 31 25 31 14 0
25 5 25 10 0 6 -11 10 -25 10 -20 0 -25 5 -25 25 0 22 4 25 33 25 18 0 39 -6
46 -12 10 -11 12 -9 9 7 -3 16 -12 21 -55 23 -28 2 -54 -1 -57 -7z"/>
<path d="M2065 2821 c3 -11 6 -49 7 -85 l1 -66 49 0 c32 0 48 4 48 13 0 9 -12
11 -40 9 -39 -4 -40 -3 -40 27 0 26 4 31 25 31 14 0 25 5 25 10 0 6 -11 10
-24 10 -24 0 -41 23 -30 41 8 14 72 11 77 -3 3 -7 6 -3 6 10 1 20 -3 22 -55
22 -50 0 -55 -2 -49 -19z"/>
<path d="M2624 2832 c-42 -29 -57 -109 -28 -150 43 -62 132 29 103 106 -16 40
-50 61 -75 44z m56 -27 c16 -19 8 -104 -11 -116 -20 -12 -53 -11 -67 3 -19 19
-14 73 9 102 23 29 50 34 69 11z"/>
<path d="M2738 2834 c-11 -17 -13 -169 -3 -169 6 0 11 28 13 63 2 34 7 62 11
62 5 0 20 -27 35 -60 15 -33 32 -60 37 -60 6 0 9 29 8 74 -1 40 1 78 5 85 4 7
0 11 -12 11 -17 0 -19 -6 -14 -50 5 -51 -10 -71 -22 -27 -7 29 -51 83 -58 71z"/>
<path d="M3262 2819 c-17 -17 -20 -18 -25 -5 -9 24 -127 23 -127 0 0 -14 3
-14 15 -4 24 20 35 1 36 -60 1 -41 -3 -56 -17 -67 -16 -12 -14 -13 22 -13 27
0 35 3 25 9 -11 7 -14 26 -12 68 3 67 11 80 38 63 16 -11 19 -21 15 -65 -4
-48 -2 -55 21 -69 29 -20 72 -13 82 12 28 68 22 122 -15 142 -27 14 -37 13
-58 -11z m68 -14 c16 -19 7 -92 -14 -113 -12 -12 -22 -14 -43 -6 -23 7 -29 16
-31 45 -5 63 55 113 88 74z"/>
<path d="M2475 2818 c-30 -16 -45 -39 -45 -69 0 -39 20 -79 39 -79 10 0 12 3
5 8 -17 11 -34 48 -34 72 0 12 14 35 31 51 34 32 34 34 4 17z"/>
<path d="M2860 2814 c0 -13 3 -14 15 -4 24 20 35 2 35 -60 0 -46 -4 -61 -17
-69 -14 -8 -10 -10 22 -10 32 0 37 2 22 10 -19 11 -22 71 -5 117 7 19 11 21
28 12 16 -9 20 -8 20 5 0 12 -13 15 -60 15 -49 0 -60 -3 -60 -16z"/>
<path d="M3025 2813 c-52 -129 -56 -143 -35 -143 12 0 17 5 14 14 -3 9 5 15
26 20 37 7 54 0 46 -20 -4 -9 2 -14 16 -14 15 0 18 3 10 13 -6 7 -16 35 -23
62 -14 58 -26 85 -38 85 -5 0 -12 -8 -16 -17z m29 -39 c13 -35 7 -54 -19 -54
-28 0 -30 8 -13 45 13 29 23 32 32 9z"/>
<path d="M2200 2761 c0 -33 -3 -66 -6 -75 -4 -12 0 -16 16 -16 18 0 20 3 11
14 -7 8 -9 32 -6 62 6 48 15 73 15 41 0 -10 6 -26 13 -37 12 -20 13 -19 40 12
l28 33 -4 -62 c-3 -53 -1 -63 13 -63 14 0 16 10 12 63 -2 34 -5 68 -7 75 -7
21 -25 13 -43 -18 -9 -16 -19 -30 -22 -30 -3 0 -13 14 -22 30 -26 46 -38 37
-38 -29z"/>
<path d="M2524 2804 c3 -9 6 -18 6 -20 0 -2 5 -4 10 -4 6 0 10 9 10 20 0 12
-7 20 -16 20 -11 0 -14 -5 -10 -16z"/>
<path d="M2537 2692 c-22 -24 -21 -31 3 -25 11 3 20 14 20 24 0 24 -3 24 -23
1z"/>
<path d="M4600 2690 c0 -5 5 -10 10 -10 6 0 10 5 10 10 0 6 -4 10 -10 10 -5 0
-10 -4 -10 -10z"/>
<path d="M4667 2689 c6 -6 57 -33 114 -59 59 -27 105 -55 107 -64 5 -23 -5
-21 -128 34 -106 47 -138 57 -108 33 7 -6 66 -34 131 -63 113 -50 119 -52 132
-34 23 30 18 40 -32 64 -215 102 -239 112 -216 89z"/>
<path d="M6408 2469 c-10 -5 -15 -16 -11 -25 5 -12 7 -12 18 3 11 15 15 15 29
4 12 -10 20 -11 28 -3 25 25 -27 43 -64 21z"/>
<path d="M6520 2465 c0 -2 14 -11 30 -20 18 -9 30 -11 30 -5 0 6 -12 15 -26
20 -29 11 -34 12 -34 5z"/>
<path d="M5135 2430 c-16 -16 -24 -30 -19 -30 6 0 23 14 39 30 16 17 24 30 19
30 -6 0 -23 -13 -39 -30z"/>
<path d="M5286 2357 c-32 -44 -46 -75 -46 -96 0 -26 -3 -31 -17 -27 -39 10
-128 17 -113 7 44 -27 215 -31 273 -6 29 12 19 25 -22 25 -23 0 -46 7 -55 16
-18 17 -21 50 -6 59 21 13 48 62 41 74 -6 9 -22 -6 -55 -52z"/>
<path d="M5935 2390 c6 -36 19 -57 28 -43 3 4 -4 24 -14 43 l-20 35 6 -35z"/>
<path d="M5850 2386 c0 -27 14 -41 30 -31 11 7 -8 55 -22 55 -4 0 -8 -11 -8
-24z"/>
<path d="M6374 2390 c3 -14 6 -32 6 -40 0 -9 27 -43 60 -78 56 -57 64 -62 104
-62 23 0 45 2 47 4 2 3 2 31 -1 63 -5 52 -7 58 -27 55 -12 -2 -25 2 -29 9 -4
8 -3 9 4 5 7 -4 12 -2 12 4 0 6 -10 8 -25 4 -16 -4 -34 0 -50 10 -36 24 -41
19 -11 -10 34 -35 33 -41 -10 -39 -41 3 -36 -1 -63 55 -12 25 -20 34 -17 20z"/>
<path d="M6152 2369 c2 -6 8 -10 13 -10 5 0 11 4 13 10 2 6 -4 11 -13 11 -9 0
-15 -5 -13 -11z"/>
<path d="M5700 2360 c-12 -8 -9 -10 13 -10 16 0 26 4 22 10 -8 12 -16 12 -35
0z"/>
<path d="M5783 2353 c-20 -7 -15 -23 7 -23 11 0 20 4 20 9 0 13 -12 19 -27 14z"/>
<path d="M4925 2191 c-84 -21 -130 -44 -146 -72 -14 -28 -10 -30 36 -19 53 12
105 12 105 0 0 -12 49 -45 57 -37 3 3 -2 13 -11 22 -9 9 -16 21 -16 26 0 5 76
9 180 9 169 0 180 1 190 20 6 11 9 20 8 20 -2 0 -57 11 -123 25 -138 29 -183
30 -280 6z"/>
<path d="M5761 2105 c-112 -52 -207 -98 -210 -101 -7 -7 52 -3 296 22 l161 17
-14 40 c-8 22 -14 57 -14 78 0 22 -3 39 -7 38 -5 0 -100 -42 -212 -94z"/>
<path d="M4728 2063 c7 -3 16 -2 19 1 4 3 -2 6 -13 5 -11 0 -14 -3 -6 -6z"/>
<path d="M3472 512 c-13 -30 -22 -55 -20 -56 61 -33 91 -45 128 -50 66 -9
1794 -10 1867 -1 35 4 68 14 74 21 6 8 18 14 25 14 20 0 17 18 -10 75 -21 44
-25 47 -32 30 -9 -21 -24 -23 -129 -23 -172 0 -225 2 -225 8 0 8 -122 11 -617
16 -266 2 -413 0 -413 -6 0 -13 -37 -13 -45 0 -6 10 -60 6 -95 -7 -34 -12
-287 -17 -402 -7 -60 5 -78 10 -80 23 -2 9 -14 -8 -26 -37z"/>
<path d="M3140 82 c13 -12 36 -24 50 -28 41 -12 2483 -17 2574 -4 70 9 136 34
123 46 -2 2 -35 -3 -73 -13 -63 -15 -179 -17 -1259 -20 -1221 -4 -1246 -3
-1414 33 l-26 6 25 -20z"/>
</g>
</svg>
